<?xml version="1.0" encoding="utf-8"?>
<!-- Generator: Adobe Illustrator 19.0.1, SVG Export Plug-In . SVG Version: 6.00 Build 0)  -->
<svg version="1.1" id="Layer_1" xmlns="http://www.w3.org/2000/svg" xmlns:xlink="http://www.w3.org/1999/xlink" x="0px" y="0px"
	 width="54" height="54" viewBox="0 0 700 700" style="enable-background:new 0 0 700 700;" xml:space="preserve">
<style type="text/css">
	.st0{fill:#252825;}
	.st1{fill:#696b6a;}
</style>
<g>
	<g id="XMLID_1_">
		<g>
			<path class="st0" d="M484.5,199.1c9.7,9.6,14.6,21.4,14.6,35.4c0,13.5-4.9,25.1-14.6,34.9c-9.7,9.7-21.5,14.6-35.2,14.6
				c-13.1,0-24.4-4.4-33.9-13.3L298.5,339c1.1,3.5,1.7,7.3,1.7,11.3c0,4-0.6,8-1.7,12L416.7,431c9.3-8.6,20.1-12.9,32.5-12.9
				c13.3,0,24.6,4.8,34,14.3c9.4,9.5,14.1,20.9,14.1,34.2s-4.7,24.7-14.1,34.2c-9.4,9.5-20.8,14.3-34,14.3s-24.6-4.8-34-14.3
				c-9.4-9.5-14.1-20.9-14.1-34.2c0-3.5,0.3-7.2,1-11l-117.9-68.7c-9.5,9.1-20.8,13.6-33.9,13.6c-13.7,0-25.5-4.9-35.2-14.6
				c-9.8-9.7-14.6-21.6-14.6-35.5c0-13.5,4.9-25.1,14.6-34.9c9.7-9.7,21.5-14.6,35.2-14.6c13.1,0,24.3,4.4,33.9,13.3l116.9-68.4
				c-1.1-3.5-1.7-7.3-1.7-11.3c0-13.9,4.9-25.7,14.6-35.4c9.7-9.6,21.5-14.4,35.2-14.4C463,184.6,474.7,189.5,484.5,199.1z"/>
			<path class="st1" d="M653.6,224.5c16.5,39.8,24.7,81.7,24.7,125.5s-8.3,85.7-24.7,125.5c-16.5,39.8-40.3,75.4-71.5,106.6
				c-31.2,31.2-66.7,55.1-106.6,71.5c-39.9,16.5-81.7,24.7-125.5,24.7s-85.7-8.3-125.5-24.7c-39.8-16.5-75.4-40.3-106.6-71.5
				c-31.2-31.2-55.1-66.7-71.6-106.6C29.9,435.7,21.6,393.8,21.6,350s8.2-85.7,24.7-125.5c16.5-39.8,40.3-75.4,71.6-106.6
				s66.7-55.1,106.6-71.6c39.8-16.5,81.7-24.7,125.5-24.7s85.7,8.3,125.5,24.7c39.8,16.5,75.4,40.3,106.6,71.6
				C613.3,149.1,637.2,184.6,653.6,224.5z M499.1,234.4c0-13.9-4.9-25.7-14.6-35.4c-9.7-9.6-21.5-14.4-35.2-14.4
				c-13.7,0-25.5,4.8-35.2,14.4c-9.7,9.6-14.6,21.4-14.6,35.4c0,4,0.5,7.8,1.7,11.3l-116.9,68.4c-9.5-8.9-20.8-13.3-33.9-13.3
				c-13.7,0-25.5,4.9-35.2,14.6c-9.8,9.7-14.6,21.4-14.6,34.9c0,14,4.9,25.8,14.6,35.5c9.7,9.7,21.5,14.6,35.2,14.6
				c13.1,0,24.3-4.5,33.9-13.6l117.9,68.7c-0.7,3.8-1,7.4-1,11c0,13.3,4.7,24.7,14.1,34.2c9.4,9.5,20.8,14.3,34,14.3
				s24.6-4.8,34-14.3c9.4-9.5,14.1-20.9,14.1-34.2s-4.7-24.7-14.1-34.2c-9.4-9.5-20.8-14.3-34-14.3c-12.4,0-23.2,4.3-32.5,12.9
				l-118.2-68.7c1.1-4,1.7-8,1.7-12c0-4-0.6-7.7-1.7-11.3l116.9-68.4c9.5,8.9,20.8,13.3,33.9,13.3c13.7,0,25.5-4.9,35.2-14.6
				C494.2,259.6,499.1,248,499.1,234.4z"/>
		</g>
		<g>
		</g>
	</g>
</g>
</svg>
